<?xml version="1.0" encoding="UTF-8"?>
<svg xmlns="http://www.w3.org/2000/svg" version="1.1" viewBox="0 0 500 500">
  <defs>
    <style>
      .cls-1 {
        fill: none;
        stroke: #231f20;
        stroke-miterlimit: 10;
      }
    </style>
  </defs>
  <!-- Generator: Adobe Illustrator 28.7.1, SVG Export Plug-In . SVG Version: 1.2.0 Build 142)  -->
  <g>
    <g id="Layer_1">
      <path class="cls-1" d="M447.02,250c0,108.81-88.21,197.02-197.02,197.02S52.98,358.81,52.98,250,141.19,52.98,250,52.98s197.02,88.21,197.02,197.02ZM178.74,148.57c-27.83,0-50.39,22.56-50.39,50.39s22.56,50.39,50.39,50.39,50.39-22.56,50.39-50.39-22.56-50.39-50.39-50.39ZM318.21,148.57c-27.83,0-50.39,22.56-50.39,50.39s22.56,50.39,50.39,50.39,50.39-22.56,50.39-50.39-22.56-50.39-50.39-50.39ZM161.2,345.75c48.81,49.35,128.24,49.79,177.6.98"/>
    </g>
  </g>
</svg>