<?xml version="1.0" encoding="UTF-8"?>
<svg xmlns="http://www.w3.org/2000/svg" xmlns:xlink="http://www.w3.org/1999/xlink" version="1.1" viewBox="0 0 500 500">
  <defs>
    <style>
      .cls-1 {
        mask: url(#mask);
      }

      .cls-2, .cls-3, .cls-4, .cls-5, .cls-6, .cls-7, .cls-8, .cls-9 {
        stroke: #fff;
        stroke-miterlimit: 10;
      }

      .cls-2, .cls-3, .cls-5 {
        fill: none;
      }

      .cls-2, .cls-4, .cls-5, .cls-6, .cls-7, .cls-8 {
        stroke-width: 9px;
      }

      .cls-3 {
        stroke-width: 6px;
      }

      .cls-4 {
        fill: url(#Rainbow);
      }

      .cls-5, .cls-8, .cls-10 {
        display: none;
      }

      .cls-11 {
        mask: url(#mask-1);
      }

      .cls-12 {
        filter: url(#luminosity-invert-noclip);
      }

      .cls-13 {
        font-family: MyriadPro-Regular, 'Myriad Pro';
        font-size: 52px;
      }

      .cls-13, .cls-14, .cls-7, .cls-8, .cls-9 {
        fill: #fff;
      }

      .cls-6 {
        fill: #231f20;
      }

      .cls-9 {
        stroke-width: 5px;
      }

      .cls-15 {
        filter: url(#luminosity-invert-noclip-2);
      }
    </style>
    <linearGradient id="Rainbow" x1="0" y1="250" x2="500" y2="250" gradientUnits="userSpaceOnUse">
      <stop offset="0" stop-color="#ee3025"/>
      <stop offset=".19" stop-color="#f26522"/>
      <stop offset=".37" stop-color="#ffde17"/>
      <stop offset=".54" stop-color="#39b54a"/>
      <stop offset=".69" stop-color="#00aeef"/>
      <stop offset=".83" stop-color="#7f3f98"/>
      <stop offset="1" stop-color="#ec008c"/>
    </linearGradient>
    <filter id="luminosity-invert-noclip" x="-4.5" y="-4.5" width="509" height="511.59" color-interpolation-filters="sRGB" filterUnits="userSpaceOnUse">
      <feColorMatrix result="cm" values="-1 0 0 0 1 0 -1 0 0 1 0 0 -1 0 1 0 0 0 1 0"/>
      <feFlood flood-color="#fff" result="bg"/>
      <feBlend in="cm" in2="bg"/>
    </filter>
    <filter id="luminosity-invert-noclip-2" x="-4.5" y="-4.5" width="509" height="509" color-interpolation-filters="sRGB" filterUnits="userSpaceOnUse">
      <feColorMatrix result="cm" values="-1 0 0 0 1 0 -1 0 0 1 0 0 -1 0 1 0 0 0 1 0"/>
      <feFlood flood-color="#fff" result="bg"/>
      <feBlend in="cm" in2="bg"/>
    </filter>
    <mask id="mask-1" x="-4.5" y="-4.5" width="509" height="509" maskUnits="userSpaceOnUse">
      <g class="cls-15">
        <g>
          <ellipse class="cls-7" cx="174.67" cy="236.61" rx="55.85" ry="27.25"/>
          <ellipse class="cls-7" cx="325.33" cy="236.61" rx="55.85" ry="27.25"/>
        </g>
      </g>
    </mask>
    <mask id="mask" x="-4.5" y="-4.5" width="509" height="511.59" maskUnits="userSpaceOnUse">
      <g class="cls-12">
        <g>
          <g class="cls-11">
            <rect class="cls-6" x="0" width="500" height="500"/>
          </g>
          <g id="Ear_L">
            <g>
              <line class="cls-2" x1="64.27" y1="222.23" x2="102.6" y2="84.16"/>
              <line class="cls-2" x1="183.66" y1="162.62" x2="102.6" y2="84.16"/>
            </g>
            <line class="cls-2" x1="85.08" y1="209.86" x2="111.1" y2="136.8"/>
            <line class="cls-2" x1="166.14" y1="167.14" x2="111.1" y2="125.62"/>
          </g>
          <g id="Ear_R">
            <g>
              <line class="cls-2" x1="434.38" y1="221.94" x2="396.05" y2="83.87"/>
              <line class="cls-2" x1="314.99" y1="162.33" x2="396.05" y2="83.87"/>
            </g>
            <line class="cls-7" x1="415.22" y1="207.86" x2="389.19" y2="134.8"/>
            <line class="cls-7" x1="334.16" y1="162.55" x2="389.19" y2="121.03"/>
          </g>
          <polyline id="Mouth" class="cls-2" points="204.25 337.59 230.95 346.01 246.75 336.77 266.21 346.01 289.25 337.59"/>
          <g id="Whiskers">
            <g>
              <line class="cls-3" x1="326.77" y1="307.82" x2="435.73" y2="253.24"/>
              <line class="cls-3" x1="414.7" y1="303.5" x2="326.77" y2="307.82"/>
              <line class="cls-3" x1="406.34" y1="342.58" x2="326.77" y2="307.82"/>
            </g>
            <g>
              <line class="cls-3" x1="174.75" y1="307.82" x2="65.79" y2="253.24"/>
              <line class="cls-3" x1="86.82" y1="303.5" x2="174.75" y2="307.82"/>
              <line class="cls-3" x1="95.18" y1="342.58" x2="174.75" y2="307.82"/>
            </g>
          </g>
          <g id="Chin">
            <path class="cls-2" d="M246.75,416.13c0-22.3,35.79-40.35,80.02-40.35"/>
            <path class="cls-2" d="M244.26,416.13c0-22.3-35.79-40.35-80.02-40.35"/>
          </g>
          <text class="cls-13" transform="translate(62.73 475.1)"><tspan x="0" y="0">Happy Halloween!</tspan></text>
          <ellipse class="cls-9" cx="246.75" cy="297.76" rx="10.93" ry="8.73"/>
          <path class="cls-14" d="M325.33,209.36c-30.84,0-55.85,12.2-55.85,27.25s25,27.25,55.85,27.25,55.85-12.2,55.85-27.25-25-27.25-55.85-27.25ZM326.77,259.23c-15.47,0-28.02-10.02-28.02-22.38s12.54-22.38,28.02-22.38,28.02,10.02,28.02,22.38-12.54,22.38-28.02,22.38Z"/>
          <path class="cls-14" d="M174.67,209.36c-30.84,0-55.85,12.2-55.85,27.25s25,27.25,55.85,27.25,55.85-12.2,55.85-27.25-25-27.25-55.85-27.25ZM176.12,259.23c-15.47,0-28.02-10.02-28.02-22.38s12.54-22.38,28.02-22.38,28.02,10.02,28.02,22.38-12.54,22.38-28.02,22.38Z"/>
        </g>
      </g>
    </mask>
  </defs>
  <!-- Generator: Adobe Illustrator 28.7.1, SVG Export Plug-In . SVG Version: 1.2.0 Build 142)  -->
  <g>
    <g id="Layer_1">
      <rect class="cls-4" width="500" height="500"/>
      <g class="cls-1">
        <rect class="cls-6" width="500" height="500"/>
      </g>
      <g class="cls-10">
        <line class="cls-2" x1="64.27" y1="222.23" x2="102.6" y2="84.16"/>
        <line class="cls-2" x1="183.66" y1="162.62" x2="102.6" y2="84.16"/>
      </g>
      <g class="cls-10">
        <line class="cls-2" x1="434.38" y1="221.94" x2="396.05" y2="83.87"/>
        <line class="cls-2" x1="314.99" y1="162.33" x2="396.05" y2="83.87"/>
      </g>
      <line class="cls-8" x1="415.22" y1="207.86" x2="389.19" y2="134.8"/>
      <line class="cls-8" x1="334.16" y1="162.55" x2="389.19" y2="121.03"/>
      <polyline class="cls-5" points="204.25 337.59 230.95 346.01 246.75 336.77 266.21 346.01 289.25 337.59"/>
      <line class="cls-5" x1="85.08" y1="209.86" x2="111.1" y2="136.8"/>
      <line class="cls-5" x1="166.14" y1="167.14" x2="111.1" y2="125.62"/>
      <g class="cls-10">
        <line class="cls-3" x1="326.77" y1="307.82" x2="435.73" y2="253.24"/>
        <line class="cls-3" x1="414.7" y1="303.5" x2="326.77" y2="307.82"/>
        <line class="cls-3" x1="406.34" y1="342.58" x2="326.77" y2="307.82"/>
      </g>
      <g class="cls-10">
        <line class="cls-3" x1="174.75" y1="307.82" x2="65.79" y2="253.24"/>
        <line class="cls-3" x1="86.82" y1="303.5" x2="174.75" y2="307.82"/>
        <line class="cls-3" x1="95.18" y1="342.58" x2="174.75" y2="307.82"/>
      </g>
      <path class="cls-5" d="M246.75,416.13c0-22.3,35.79-40.35,80.02-40.35"/>
      <path class="cls-5" d="M244.26,416.13c0-22.3-35.79-40.35-80.02-40.35"/>
    </g>
  </g>
</svg>