<?xml version="1.0" encoding="UTF-8"?>
<svg id="Layer_1" xmlns="http://www.w3.org/2000/svg" version="1.1" viewBox="0 0 1024 1024">
  <!-- Generator: Adobe Illustrator 29.6.0, SVG Export Plug-In . SVG Version: 2.1.1 Build 207)  -->
  <defs>
    <style>
      .st0 {
        fill: #fff;
      }
    </style>
  </defs>
  <path class="st0" d="M512,776.92c-70.48,0-136.94-27.63-187.11-77.81-50.18-50.18-77.81-116.63-77.81-187.11s27.63-136.94,77.81-187.11,116.63-77.81,187.11-77.81,136.94,27.63,187.11,77.81c50.18,50.18,77.81,116.63,77.81,187.11s-27.63,136.94-77.81,187.11c-50.18,50.18-116.63,77.81-187.11,77.81ZM512,271.08c-64.07,0-124.5,25.14-170.14,70.78-45.64,45.64-70.78,106.07-70.78,170.14s25.14,124.5,70.78,170.14c45.64,45.64,106.07,70.78,170.14,70.78h0c64.07,0,124.5-25.14,170.14-70.78,45.64-45.64,70.78-106.07,70.78-170.14s-25.14-124.5-70.78-170.14c-45.64-45.64-106.07-70.78-170.14-70.78Z"/>
  <polygon class="st0" points="720.85 514.07 556.07 530.62 607.59 615.27 532.67 554.02 516.12 718.8 499.57 554.02 408.97 612.83 476.17 530.62 311.4 514.07 476.17 497.52 408.22 414.4 499.57 474.12 516.12 309.34 532.67 474.12 612.4 408.94 556.07 497.52 720.85 514.07"/>
</svg>